<?xml version="1.0" encoding="utf-8"?>
<svg id="master-artboard" viewBox="0 0 1400 980" version="1.1" xmlns="http://www.w3.org/2000/svg" x="0px" y="0px" style="enable-background:new 0 0 1400 980;" width="1400px" height="980px"><rect id="ee-background" x="0" y="0" width="1400" height="980" style="fill: white; fill-opacity: 1; pointer-events: none;"/>


<g transform="matrix(1.9215686274509804, 0, 0, 1.9215686274509804, 210.00001256509586, -0.000004188364982837811)"><g>
	<g id="post-facebook">
		<path d="M459,0H51C22.95,0,0,22.95,0,51v408c0,28.05,22.95,51,51,51h408c28.05,0,51-22.95,51-51V51C510,22.95,487.05,0,459,0z&#10;&#9;&#9;&#9; M433.5,51v76.5h-51c-15.3,0-25.5,10.2-25.5,25.5v51h76.5v76.5H357V459h-76.5V280.5h-51V204h51v-63.75&#10;&#9;&#9;&#9;C280.5,91.8,321.3,51,369.75,51H433.5z" style="fill: rgb(0, 162, 255);"/>
	</g>
</g><g>
</g><g>
</g><g>
</g><g>
</g><g>
</g><g>
</g><g>
</g><g>
</g><g>
</g><g>
</g><g>
</g><g>
</g><g>
</g><g>
</g><g>
</g></g></svg>